<?xml version="1.0" standalone="no"?>
<!DOCTYPE svg PUBLIC "-//W3C//DTD SVG 20010904//EN"
 "http://www.w3.org/TR/2001/REC-SVG-20010904/DTD/svg10.dtd">
<svg version="1.0" xmlns="http://www.w3.org/2000/svg"
 width="717.000000pt" height="627.000000pt" viewBox="0 0 717.000000 627.000000"
 preserveAspectRatio="xMidYMid meet">

<g transform="translate(0.000000,627.000000) scale(0.100000,-0.100000)"
fill="#000000" stroke="none">
<path d="M5090 5699 c-119 -9 -180 -25 -285 -76 -119 -57 -402 -267 -530 -393
-251 -244 -486 -370 -693 -370 -86 0 -214 31 -293 70 -101 51 -295 198 -389
295 -114 117 -396 328 -528 394 -115 58 -216 81 -354 81 -163 0 -241 -28 -478
-173 -224 -136 -406 -265 -499 -351 -24 -23 -82 -84 -129 -136 -97 -108 -153
-214 -173 -325 -8 -48 -10 -342 -7 -1083 l5 -1017 42 -130 c35 -106 57 -150
114 -238 60 -92 89 -126 196 -221 161 -144 432 -331 976 -675 237 -150 561
-363 720 -474 375 -259 657 -432 734 -448 107 -23 157 -6 370 122 102 62 319
205 481 317 162 113 489 327 725 477 533 338 836 548 992 686 104 92 129 122
190 218 55 86 81 140 114 239 l43 127 4 1017 c3 737 1 1035 -7 1082 -14 82
-69 204 -119 265 -156 192 -354 351 -693 557 -247 150 -336 177 -529 163z"/>
</g>
</svg>
